<mxfile host="app.diagrams.net" agent="Mozilla/5.0 (Windows NT 10.0; Win64; x64; rv:139.0) Gecko/20100101 Firefox/139.0" version="27.1.6" pages="2">
  <diagram name="Page-1" id="HXht4Nh3Z01pkx1o4XB-">
    <mxGraphModel dx="1429" dy="856" grid="1" gridSize="10" guides="1" tooltips="1" connect="1" arrows="1" fold="1" page="1" pageScale="1" pageWidth="3300" pageHeight="4681" math="0" shadow="0">
      <root>
        <mxCell id="0" />
        <mxCell id="1" parent="0" />
        <mxCell id="4beopHxYhheQVA-fnsDj-3" style="edgeStyle=orthogonalEdgeStyle;rounded=0;orthogonalLoop=1;jettySize=auto;html=1;entryX=0;entryY=0.5;entryDx=0;entryDy=0;" parent="1" source="4beopHxYhheQVA-fnsDj-1" target="4beopHxYhheQVA-fnsDj-2" edge="1">
          <mxGeometry relative="1" as="geometry" />
        </mxCell>
        <mxCell id="4beopHxYhheQVA-fnsDj-1" value="data&#xa;Vital Signs Data" style="rectangle;fillColor=#fff2cc;strokeColor=#d6b656;" parent="1" name="data" vertex="1" tooltip="⚠️ Node not part of any valid pattern.">
          <mxGeometry x="660" y="470" width="100" height="50" as="geometry" />
        </mxCell>
        <mxCell id="4beopHxYhheQVA-fnsDj-5" style="edgeStyle=orthogonalEdgeStyle;rounded=0;orthogonalLoop=1;jettySize=auto;html=1;exitX=1;exitY=0.5;exitDx=0;exitDy=0;entryX=0.5;entryY=0;entryDx=0;entryDy=0;" parent="1" source="4beopHxYhheQVA-fnsDj-2" target="4beopHxYhheQVA-fnsDj-4" edge="1">
          <mxGeometry relative="1" as="geometry" />
        </mxCell>
        <mxCell id="4beopHxYhheQVA-fnsDj-2" value="transform" style="rounded=1;whiteSpace=wrap;html=1;arcSize=50;fillColor=#f8cecc;strokeColor=#b85450;" parent="1" name="transform" vertex="1" tooltip="⚠️ Node not part of any valid pattern.">
          <mxGeometry x="840" y="470" width="100" height="50" as="geometry" />
        </mxCell>
        <mxCell id="4beopHxYhheQVA-fnsDj-7" style="edgeStyle=orthogonalEdgeStyle;rounded=0;orthogonalLoop=1;jettySize=auto;html=1;exitX=0.5;exitY=1;exitDx=0;exitDy=0;entryX=0.5;entryY=0;entryDx=0;entryDy=0;" parent="1" source="4beopHxYhheQVA-fnsDj-4" target="4beopHxYhheQVA-fnsDj-6" edge="1">
          <mxGeometry relative="1" as="geometry" />
        </mxCell>
        <mxCell id="4beopHxYhheQVA-fnsDj-4" value="symbol&#xa;Fuzzy Values" style="rectangle;fillColor=#dae8fc;strokeColor=#6c8ebf;" parent="1" name="symbol" vertex="1">
          <mxGeometry x="960" y="570" width="100" height="50" as="geometry" />
        </mxCell>
        <mxCell id="4beopHxYhheQVA-fnsDj-15" style="edgeStyle=orthogonalEdgeStyle;rounded=0;orthogonalLoop=1;jettySize=auto;html=1;entryX=0;entryY=0.5;entryDx=0;entryDy=0;" parent="1" source="4beopHxYhheQVA-fnsDj-6" target="4beopHxYhheQVA-fnsDj-14" edge="1">
          <mxGeometry relative="1" as="geometry" />
        </mxCell>
        <mxCell id="4beopHxYhheQVA-fnsDj-6" value="infer:deduce" style="rounded=1;whiteSpace=wrap;html=1;arcSize=50;fillColor=#bac8d3;strokeColor=#23445d;" parent="1" name="infer:deduce" vertex="1">
          <mxGeometry x="960" y="690" width="100" height="50" as="geometry" />
        </mxCell>
        <mxCell id="4beopHxYhheQVA-fnsDj-9" style="edgeStyle=orthogonalEdgeStyle;rounded=0;orthogonalLoop=1;jettySize=auto;html=1;exitX=0.5;exitY=0;exitDx=0;exitDy=0;entryX=0.5;entryY=1;entryDx=0;entryDy=0;" parent="1" source="4beopHxYhheQVA-fnsDj-8" target="4beopHxYhheQVA-fnsDj-6" edge="1">
          <mxGeometry relative="1" as="geometry" />
        </mxCell>
        <mxCell id="4beopHxYhheQVA-fnsDj-8" value="model:semantic&#xa;Rules" style="shape=hexagon;perimeter=hexagonPerimeter2;fillColor=#b0e3e6;strokeColor=#0e8088;" parent="1" name="model" vertex="1">
          <mxGeometry x="950" y="810" width="120" height="50" as="geometry" />
        </mxCell>
        <mxCell id="4beopHxYhheQVA-fnsDj-11" style="edgeStyle=orthogonalEdgeStyle;rounded=0;orthogonalLoop=1;jettySize=auto;html=1;exitX=1;exitY=0.5;exitDx=0;exitDy=0;entryX=0.5;entryY=1;entryDx=0;entryDy=0;" parent="1" source="4beopHxYhheQVA-fnsDj-10" target="4beopHxYhheQVA-fnsDj-8" edge="1">
          <mxGeometry relative="1" as="geometry" />
        </mxCell>
        <mxCell id="4beopHxYhheQVA-fnsDj-10" value="generate:engineer" style="rounded=1;whiteSpace=wrap;html=1;arcSize=50;fillColor=#e1d5e7;strokeColor=#9673a6;" parent="1" name="generate:engineer" vertex="1">
          <mxGeometry x="840" y="910" width="100" height="50" as="geometry" />
        </mxCell>
        <mxCell id="4beopHxYhheQVA-fnsDj-13" style="edgeStyle=orthogonalEdgeStyle;rounded=0;orthogonalLoop=1;jettySize=auto;html=1;entryX=0;entryY=0.5;entryDx=0;entryDy=0;" parent="1" source="4beopHxYhheQVA-fnsDj-12" target="4beopHxYhheQVA-fnsDj-10" edge="1">
          <mxGeometry relative="1" as="geometry" />
        </mxCell>
        <mxCell id="4beopHxYhheQVA-fnsDj-12" value="actor&#xa;Clinicians" style="triangle;fillColor=#ffe6cc;strokeColor=#d79b00;" parent="1" name="actor" vertex="1">
          <mxGeometry x="660" y="910" width="100" height="50" as="geometry" />
        </mxCell>
        <mxCell id="4beopHxYhheQVA-fnsDj-17" style="edgeStyle=orthogonalEdgeStyle;rounded=0;orthogonalLoop=1;jettySize=auto;html=1;entryX=0;entryY=0.5;entryDx=0;entryDy=0;" parent="1" source="4beopHxYhheQVA-fnsDj-14" target="4beopHxYhheQVA-fnsDj-16" edge="1">
          <mxGeometry relative="1" as="geometry" />
        </mxCell>
        <mxCell id="4beopHxYhheQVA-fnsDj-14" value="symbol&#xa;Intermediate&#xa;Fuzzy Values (Y1)" style="rectangle;fillColor=#dae8fc;strokeColor=#6c8ebf;" parent="1" name="symbol" vertex="1">
          <mxGeometry x="1140" y="690" width="100" height="50" as="geometry" />
        </mxCell>
        <mxCell id="4beopHxYhheQVA-fnsDj-19" style="edgeStyle=orthogonalEdgeStyle;rounded=0;orthogonalLoop=1;jettySize=auto;html=1;entryX=0;entryY=0.5;entryDx=0;entryDy=0;" parent="1" source="4beopHxYhheQVA-fnsDj-16" target="4beopHxYhheQVA-fnsDj-18" edge="1">
          <mxGeometry relative="1" as="geometry" />
        </mxCell>
        <mxCell id="4beopHxYhheQVA-fnsDj-16" value="infer:deduce" style="rounded=1;whiteSpace=wrap;html=1;arcSize=50;fillColor=#bac8d3;strokeColor=#23445d;" parent="1" name="infer:deduce" vertex="1" tooltip="⚠️ Node not part of any valid pattern.">
          <mxGeometry x="1320" y="690" width="100" height="50" as="geometry" />
        </mxCell>
        <mxCell id="4beopHxYhheQVA-fnsDj-21" style="edgeStyle=orthogonalEdgeStyle;rounded=0;orthogonalLoop=1;jettySize=auto;html=1;entryX=0;entryY=0.5;entryDx=0;entryDy=0;" parent="1" source="4beopHxYhheQVA-fnsDj-18" target="4beopHxYhheQVA-fnsDj-20" edge="1">
          <mxGeometry relative="1" as="geometry" />
        </mxCell>
        <mxCell id="4beopHxYhheQVA-fnsDj-18" value="symbol&#xa;Intermediate&#xa;Fuzzy Values (Y2)" style="rectangle;fillColor=#dae8fc;strokeColor=#6c8ebf;" parent="1" name="symbol" vertex="1" tooltip="⚠️ Node not part of any valid pattern.">
          <mxGeometry x="1500" y="690" width="100" height="50" as="geometry" />
        </mxCell>
        <mxCell id="4beopHxYhheQVA-fnsDj-23" style="edgeStyle=orthogonalEdgeStyle;rounded=0;orthogonalLoop=1;jettySize=auto;html=1;entryX=0;entryY=0.5;entryDx=0;entryDy=0;" parent="1" source="4beopHxYhheQVA-fnsDj-20" target="4beopHxYhheQVA-fnsDj-22" edge="1">
          <mxGeometry relative="1" as="geometry" />
        </mxCell>
        <mxCell id="4beopHxYhheQVA-fnsDj-20" value="infer:deduce" style="rounded=1;whiteSpace=wrap;html=1;arcSize=50;fillColor=#bac8d3;strokeColor=#23445d;" parent="1" name="infer:deduce" vertex="1" tooltip="⚠️ Node not part of any valid pattern.">
          <mxGeometry x="1680" y="690" width="100" height="50" as="geometry" />
        </mxCell>
        <mxCell id="4beopHxYhheQVA-fnsDj-25" style="edgeStyle=orthogonalEdgeStyle;rounded=0;orthogonalLoop=1;jettySize=auto;html=1;exitX=1;exitY=0.5;exitDx=0;exitDy=0;entryX=0.5;entryY=0;entryDx=0;entryDy=0;" parent="1" source="4beopHxYhheQVA-fnsDj-22" target="4beopHxYhheQVA-fnsDj-24" edge="1">
          <mxGeometry relative="1" as="geometry" />
        </mxCell>
        <mxCell id="4beopHxYhheQVA-fnsDj-22" value="symbol&#xa;Cardiovascular&#xa;Risk Level" style="rectangle;fillColor=#dae8fc;strokeColor=#6c8ebf;" parent="1" name="symbol" vertex="1" tooltip="⚠️ Node not part of any valid pattern.">
          <mxGeometry x="1860" y="690" width="100" height="50" as="geometry" />
        </mxCell>
        <mxCell id="4beopHxYhheQVA-fnsDj-27" style="edgeStyle=orthogonalEdgeStyle;rounded=0;orthogonalLoop=1;jettySize=auto;html=1;exitX=0.5;exitY=1;exitDx=0;exitDy=0;entryX=0.5;entryY=0;entryDx=0;entryDy=0;" parent="1" source="4beopHxYhheQVA-fnsDj-24" target="4beopHxYhheQVA-fnsDj-26" edge="1">
          <mxGeometry relative="1" as="geometry" />
        </mxCell>
        <mxCell id="4beopHxYhheQVA-fnsDj-24" value="transform" style="rounded=1;whiteSpace=wrap;html=1;arcSize=50;fillColor=#f8cecc;strokeColor=#b85450;" parent="1" name="transform" vertex="1" tooltip="⚠️ Node not part of any valid pattern.">
          <mxGeometry x="1990" y="790" width="100" height="50" as="geometry" />
        </mxCell>
        <mxCell id="4beopHxYhheQVA-fnsDj-26" value="symbol&#xa;Crisp Risk Level" style="rectangle;fillColor=#dae8fc;strokeColor=#6c8ebf;" parent="1" name="symbol" vertex="1" tooltip="⚠️ Node not part of any valid pattern.">
          <mxGeometry x="1990" y="910" width="100" height="50" as="geometry" />
        </mxCell>
        <mxCell id="4beopHxYhheQVA-fnsDj-28" value="error" style="text;html=1;align=center;verticalAlign=middle;whiteSpace=wrap;rounded=0;dashed=1;fillColor=#f5f5f5;fontColor=#333333;strokeColor=#666666;strokeWidth=2;" parent="1" name="text" vertex="1">
          <mxGeometry x="770" y="500" width="50" height="30" as="geometry" />
        </mxCell>
        <mxCell id="AwtsD6l_j7oamlXy3ROA-1" value="error" style="text;html=1;align=center;verticalAlign=middle;whiteSpace=wrap;rounded=0;dashed=1;fillColor=#f5f5f5;fontColor=#333333;strokeColor=#666666;strokeWidth=2;" parent="1" name="text" vertex="1">
          <mxGeometry x="1870" y="750" width="50" height="30" as="geometry" />
        </mxCell>
        <mxCell id="AwtsD6l_j7oamlXy3ROA-2" value="error" style="text;html=1;align=center;verticalAlign=middle;whiteSpace=wrap;rounded=0;dashed=1;fillColor=#f5f5f5;fontColor=#333333;strokeColor=#666666;strokeWidth=2;" parent="1" name="text" vertex="1">
          <mxGeometry x="1930" y="800" width="50" height="30" as="geometry" />
        </mxCell>
        <mxCell id="AwtsD6l_j7oamlXy3ROA-3" value="error" style="text;html=1;align=center;verticalAlign=middle;whiteSpace=wrap;rounded=0;dashed=1;fillColor=#f5f5f5;fontColor=#333333;strokeColor=#666666;strokeWidth=2;" parent="1" name="text" vertex="1">
          <mxGeometry x="1930" y="910" width="50" height="30" as="geometry" />
        </mxCell>
      </root>
    </mxGraphModel>
  </diagram>
  <diagram name="Copy of Page-1" id="ab83jLQ1mQFz8xMkF2xK">
    <mxGraphModel dx="1965" dy="1178" grid="1" gridSize="10" guides="1" tooltips="1" connect="1" arrows="1" fold="1" page="1" pageScale="1" pageWidth="3300" pageHeight="4681" math="0" shadow="0">
      <root>
        <mxCell id="R5QBEx0JlAZgmEDD3tri-0" />
        <mxCell id="R5QBEx0JlAZgmEDD3tri-1" parent="R5QBEx0JlAZgmEDD3tri-0" />
        <mxCell id="R5QBEx0JlAZgmEDD3tri-2" style="edgeStyle=orthogonalEdgeStyle;rounded=0;orthogonalLoop=1;jettySize=auto;html=1;entryX=0;entryY=0.5;entryDx=0;entryDy=0;" edge="1" parent="R5QBEx0JlAZgmEDD3tri-1" source="R5QBEx0JlAZgmEDD3tri-3" target="R5QBEx0JlAZgmEDD3tri-5">
          <mxGeometry relative="1" as="geometry" />
        </mxCell>
        <mxCell id="R5QBEx0JlAZgmEDD3tri-3" value="data&#xa;Vital Signs Data" style="rectangle;fillColor=#fff2cc;strokeColor=#d6b656;" name="data" vertex="1" parent="R5QBEx0JlAZgmEDD3tri-1" tooltip="⚠️ Node not part of any valid pattern.">
          <mxGeometry x="660" y="470" width="100" height="50" as="geometry" />
        </mxCell>
        <mxCell id="R5QBEx0JlAZgmEDD3tri-4" style="edgeStyle=orthogonalEdgeStyle;rounded=0;orthogonalLoop=1;jettySize=auto;html=1;exitX=1;exitY=0.5;exitDx=0;exitDy=0;entryX=0.5;entryY=0;entryDx=0;entryDy=0;" edge="1" parent="R5QBEx0JlAZgmEDD3tri-1" source="R5QBEx0JlAZgmEDD3tri-5" target="R5QBEx0JlAZgmEDD3tri-7">
          <mxGeometry relative="1" as="geometry" />
        </mxCell>
        <mxCell id="R5QBEx0JlAZgmEDD3tri-5" value="transform" style="rounded=1;whiteSpace=wrap;html=1;arcSize=50;fillColor=#f8cecc;strokeColor=#b85450;" name="transform" vertex="1" parent="R5QBEx0JlAZgmEDD3tri-1" tooltip="⚠️ Node not part of any valid pattern.">
          <mxGeometry x="840" y="470" width="100" height="50" as="geometry" />
        </mxCell>
        <mxCell id="R5QBEx0JlAZgmEDD3tri-6" style="edgeStyle=orthogonalEdgeStyle;rounded=0;orthogonalLoop=1;jettySize=auto;html=1;exitX=0.5;exitY=1;exitDx=0;exitDy=0;entryX=0.5;entryY=0;entryDx=0;entryDy=0;" edge="1" parent="R5QBEx0JlAZgmEDD3tri-1" source="R5QBEx0JlAZgmEDD3tri-7" target="R5QBEx0JlAZgmEDD3tri-9">
          <mxGeometry relative="1" as="geometry" />
        </mxCell>
        <mxCell id="R5QBEx0JlAZgmEDD3tri-7" value="symbol&#xa;Fuzzy Values" style="rectangle;fillColor=#dae8fc;strokeColor=#6c8ebf;" name="symbol" vertex="1" parent="R5QBEx0JlAZgmEDD3tri-1" tooltip="⚠️ Node not part of any valid pattern.">
          <mxGeometry x="960" y="570" width="100" height="50" as="geometry" />
        </mxCell>
        <mxCell id="R5QBEx0JlAZgmEDD3tri-8" style="edgeStyle=orthogonalEdgeStyle;rounded=0;orthogonalLoop=1;jettySize=auto;html=1;entryX=0;entryY=0.5;entryDx=0;entryDy=0;" edge="1" parent="R5QBEx0JlAZgmEDD3tri-1" source="R5QBEx0JlAZgmEDD3tri-9" target="R5QBEx0JlAZgmEDD3tri-17">
          <mxGeometry relative="1" as="geometry" />
        </mxCell>
        <mxCell id="R5QBEx0JlAZgmEDD3tri-9" value="infer:deduce" style="rounded=1;whiteSpace=wrap;html=1;arcSize=50;fillColor=#bac8d3;strokeColor=#23445d;" name="infer:deduce" vertex="1" parent="R5QBEx0JlAZgmEDD3tri-1">
          <mxGeometry x="960" y="690" width="100" height="50" as="geometry" />
        </mxCell>
        <mxCell id="R5QBEx0JlAZgmEDD3tri-10" style="edgeStyle=orthogonalEdgeStyle;rounded=0;orthogonalLoop=1;jettySize=auto;html=1;exitX=0.5;exitY=0;exitDx=0;exitDy=0;entryX=0.5;entryY=1;entryDx=0;entryDy=0;" edge="1" parent="R5QBEx0JlAZgmEDD3tri-1" source="R5QBEx0JlAZgmEDD3tri-11" target="R5QBEx0JlAZgmEDD3tri-9">
          <mxGeometry relative="1" as="geometry" />
        </mxCell>
        <mxCell id="R5QBEx0JlAZgmEDD3tri-11" value="model:semantic&#xa;Rules" style="shape=hexagon;perimeter=hexagonPerimeter2;fillColor=#b0e3e6;strokeColor=#0e8088;" name="model" vertex="1" parent="R5QBEx0JlAZgmEDD3tri-1">
          <mxGeometry x="950" y="810" width="120" height="50" as="geometry" />
        </mxCell>
        <mxCell id="R5QBEx0JlAZgmEDD3tri-12" style="edgeStyle=orthogonalEdgeStyle;rounded=0;orthogonalLoop=1;jettySize=auto;html=1;exitX=1;exitY=0.5;exitDx=0;exitDy=0;entryX=0.5;entryY=1;entryDx=0;entryDy=0;" edge="1" parent="R5QBEx0JlAZgmEDD3tri-1" source="R5QBEx0JlAZgmEDD3tri-13" target="R5QBEx0JlAZgmEDD3tri-11">
          <mxGeometry relative="1" as="geometry" />
        </mxCell>
        <mxCell id="R5QBEx0JlAZgmEDD3tri-13" value="generate:engineer" style="rounded=1;whiteSpace=wrap;html=1;arcSize=50;fillColor=#e1d5e7;strokeColor=#9673a6;" name="generate:engineer" vertex="1" parent="R5QBEx0JlAZgmEDD3tri-1">
          <mxGeometry x="840" y="910" width="100" height="50" as="geometry" />
        </mxCell>
        <mxCell id="R5QBEx0JlAZgmEDD3tri-14" style="edgeStyle=orthogonalEdgeStyle;rounded=0;orthogonalLoop=1;jettySize=auto;html=1;entryX=0;entryY=0.5;entryDx=0;entryDy=0;" edge="1" parent="R5QBEx0JlAZgmEDD3tri-1" source="R5QBEx0JlAZgmEDD3tri-15" target="R5QBEx0JlAZgmEDD3tri-13">
          <mxGeometry relative="1" as="geometry" />
        </mxCell>
        <mxCell id="R5QBEx0JlAZgmEDD3tri-15" value="actor&#xa;Clinicians" style="triangle;fillColor=#ffe6cc;strokeColor=#d79b00;" name="actor" vertex="1" parent="R5QBEx0JlAZgmEDD3tri-1">
          <mxGeometry x="660" y="910" width="100" height="50" as="geometry" />
        </mxCell>
        <mxCell id="R5QBEx0JlAZgmEDD3tri-16" style="edgeStyle=orthogonalEdgeStyle;rounded=0;orthogonalLoop=1;jettySize=auto;html=1;entryX=0;entryY=0.5;entryDx=0;entryDy=0;" edge="1" parent="R5QBEx0JlAZgmEDD3tri-1" source="R5QBEx0JlAZgmEDD3tri-17" target="R5QBEx0JlAZgmEDD3tri-19">
          <mxGeometry relative="1" as="geometry" />
        </mxCell>
        <mxCell id="R5QBEx0JlAZgmEDD3tri-17" value="symbol&#xa;Intermediate&#xa;Fuzzy Values (Y1)" style="rectangle;fillColor=#dae8fc;strokeColor=#6c8ebf;" name="symbol" vertex="1" parent="R5QBEx0JlAZgmEDD3tri-1">
          <mxGeometry x="1140" y="690" width="100" height="50" as="geometry" />
        </mxCell>
        <mxCell id="R5QBEx0JlAZgmEDD3tri-18" style="edgeStyle=orthogonalEdgeStyle;rounded=0;orthogonalLoop=1;jettySize=auto;html=1;entryX=0;entryY=0.5;entryDx=0;entryDy=0;" edge="1" parent="R5QBEx0JlAZgmEDD3tri-1" source="R5QBEx0JlAZgmEDD3tri-19" target="R5QBEx0JlAZgmEDD3tri-21">
          <mxGeometry relative="1" as="geometry" />
        </mxCell>
        <mxCell id="R5QBEx0JlAZgmEDD3tri-19" value="infer:deduce" style="rounded=1;whiteSpace=wrap;html=1;arcSize=50;fillColor=#bac8d3;strokeColor=#23445d;" name="infer:deduce" vertex="1" parent="R5QBEx0JlAZgmEDD3tri-1">
          <mxGeometry x="1320" y="690" width="100" height="50" as="geometry" />
        </mxCell>
        <mxCell id="R5QBEx0JlAZgmEDD3tri-20" style="edgeStyle=orthogonalEdgeStyle;rounded=0;orthogonalLoop=1;jettySize=auto;html=1;entryX=0;entryY=0.5;entryDx=0;entryDy=0;" edge="1" parent="R5QBEx0JlAZgmEDD3tri-1" source="R5QBEx0JlAZgmEDD3tri-21" target="R5QBEx0JlAZgmEDD3tri-23">
          <mxGeometry relative="1" as="geometry" />
        </mxCell>
        <mxCell id="R5QBEx0JlAZgmEDD3tri-21" value="symbol&#xa;Intermediate&#xa;Fuzzy Values (Y2)" style="rectangle;fillColor=#dae8fc;strokeColor=#6c8ebf;" name="symbol" vertex="1" parent="R5QBEx0JlAZgmEDD3tri-1">
          <mxGeometry x="1500" y="690" width="100" height="50" as="geometry" />
        </mxCell>
        <mxCell id="R5QBEx0JlAZgmEDD3tri-22" style="edgeStyle=orthogonalEdgeStyle;rounded=0;orthogonalLoop=1;jettySize=auto;html=1;entryX=0;entryY=0.5;entryDx=0;entryDy=0;" edge="1" parent="R5QBEx0JlAZgmEDD3tri-1" source="R5QBEx0JlAZgmEDD3tri-23" target="R5QBEx0JlAZgmEDD3tri-25">
          <mxGeometry relative="1" as="geometry" />
        </mxCell>
        <mxCell id="R5QBEx0JlAZgmEDD3tri-23" value="infer:deduce" style="rounded=1;whiteSpace=wrap;html=1;arcSize=50;fillColor=#bac8d3;strokeColor=#23445d;" name="infer:deduce" vertex="1" parent="R5QBEx0JlAZgmEDD3tri-1">
          <mxGeometry x="1680" y="690" width="100" height="50" as="geometry" />
        </mxCell>
        <mxCell id="R5QBEx0JlAZgmEDD3tri-24" style="edgeStyle=orthogonalEdgeStyle;rounded=0;orthogonalLoop=1;jettySize=auto;html=1;exitX=1;exitY=0.5;exitDx=0;exitDy=0;entryX=0.5;entryY=0;entryDx=0;entryDy=0;" edge="1" parent="R5QBEx0JlAZgmEDD3tri-1" source="R5QBEx0JlAZgmEDD3tri-25" target="R5QBEx0JlAZgmEDD3tri-27">
          <mxGeometry relative="1" as="geometry" />
        </mxCell>
        <mxCell id="R5QBEx0JlAZgmEDD3tri-25" value="symbol&#xa;Cardiovascular&#xa;Risk Level" style="rectangle;fillColor=#dae8fc;strokeColor=#6c8ebf;" name="symbol" vertex="1" parent="R5QBEx0JlAZgmEDD3tri-1">
          <mxGeometry x="1860" y="690" width="100" height="50" as="geometry" />
        </mxCell>
        <mxCell id="R5QBEx0JlAZgmEDD3tri-26" style="edgeStyle=orthogonalEdgeStyle;rounded=0;orthogonalLoop=1;jettySize=auto;html=1;exitX=0.5;exitY=1;exitDx=0;exitDy=0;entryX=0.5;entryY=0;entryDx=0;entryDy=0;" edge="1" parent="R5QBEx0JlAZgmEDD3tri-1" source="R5QBEx0JlAZgmEDD3tri-27" target="R5QBEx0JlAZgmEDD3tri-28">
          <mxGeometry relative="1" as="geometry" />
        </mxCell>
        <mxCell id="R5QBEx0JlAZgmEDD3tri-27" value="transform" style="rounded=1;whiteSpace=wrap;html=1;arcSize=50;fillColor=#f8cecc;strokeColor=#b85450;" name="transform" vertex="1" parent="R5QBEx0JlAZgmEDD3tri-1">
          <mxGeometry x="1990" y="790" width="100" height="50" as="geometry" />
        </mxCell>
        <mxCell id="R5QBEx0JlAZgmEDD3tri-28" value="symbol&#xa;Crisp Risk Level" style="rectangle;fillColor=#dae8fc;strokeColor=#6c8ebf;" name="symbol" vertex="1" parent="R5QBEx0JlAZgmEDD3tri-1">
          <mxGeometry x="1990" y="910" width="100" height="50" as="geometry" />
        </mxCell>
        <mxCell id="R5QBEx0JlAZgmEDD3tri-29" value="error" style="text;html=1;align=center;verticalAlign=middle;whiteSpace=wrap;rounded=0;dashed=1;fillColor=#f5f5f5;fontColor=#333333;strokeColor=#666666;strokeWidth=2;" name="text" vertex="1" parent="R5QBEx0JlAZgmEDD3tri-1">
          <mxGeometry x="770" y="500" width="50" height="30" as="geometry" />
        </mxCell>
      </root>
    </mxGraphModel>
  </diagram>
</mxfile>
